<mxfile host="app.diagrams.net" modified="2022-01-20T13:40:49.564Z" agent="5.0 (Windows NT 10.0; Win64; x64) AppleWebKit/537.36 (KHTML, like Gecko) Chrome/97.0.4692.71 Safari/537.36" etag="lfFJvKEgdhQmaUCgU1sm" version="16.2.7" type="github">
  <diagram id="2GkdoWeLC6AMlJ0hPWRP" name="第 1 页">
    <mxGraphModel dx="782" dy="436" grid="1" gridSize="10" guides="1" tooltips="1" connect="1" arrows="1" fold="1" page="1" pageScale="1" pageWidth="827" pageHeight="1169" math="0" shadow="0">
      <root>
        <mxCell id="0" />
        <mxCell id="1" parent="0" />
        <mxCell id="bJAYaRsmpoxmMZURCrxh-3" value="" style="edgeStyle=orthogonalEdgeStyle;rounded=0;orthogonalLoop=1;jettySize=auto;html=1;" parent="1" source="bJAYaRsmpoxmMZURCrxh-1" target="bJAYaRsmpoxmMZURCrxh-2" edge="1">
          <mxGeometry relative="1" as="geometry" />
        </mxCell>
        <mxCell id="bJAYaRsmpoxmMZURCrxh-1" value="源码入口&lt;br&gt;" style="ellipse;whiteSpace=wrap;html=1;" parent="1" vertex="1">
          <mxGeometry x="220" y="10" width="100" height="40" as="geometry" />
        </mxCell>
        <mxCell id="bJAYaRsmpoxmMZURCrxh-5" value="@Bean" style="edgeStyle=orthogonalEdgeStyle;rounded=0;orthogonalLoop=1;jettySize=auto;html=1;" parent="1" source="bJAYaRsmpoxmMZURCrxh-2" target="bJAYaRsmpoxmMZURCrxh-4" edge="1">
          <mxGeometry relative="1" as="geometry" />
        </mxCell>
        <mxCell id="bJAYaRsmpoxmMZURCrxh-2" value="加载spring.factories文件中的&lt;br&gt;GlobalTransactionAutoConfiguration配置类" style="whiteSpace=wrap;html=1;" parent="1" vertex="1">
          <mxGeometry x="170" y="70" width="200" height="60" as="geometry" />
        </mxCell>
        <mxCell id="bJAYaRsmpoxmMZURCrxh-7" value="实现生命周期接口" style="edgeStyle=orthogonalEdgeStyle;rounded=0;orthogonalLoop=1;jettySize=auto;html=1;" parent="1" source="bJAYaRsmpoxmMZURCrxh-4" target="bJAYaRsmpoxmMZURCrxh-6" edge="1">
          <mxGeometry relative="1" as="geometry" />
        </mxCell>
        <mxCell id="bJAYaRsmpoxmMZURCrxh-4" value="GlobalTransactionScanner全局事务扫描" style="whiteSpace=wrap;html=1;" parent="1" vertex="1">
          <mxGeometry x="195" y="180" width="150" height="70" as="geometry" />
        </mxCell>
        <mxCell id="bJAYaRsmpoxmMZURCrxh-11" value="" style="edgeStyle=orthogonalEdgeStyle;rounded=0;orthogonalLoop=1;jettySize=auto;html=1;" parent="1" source="bJAYaRsmpoxmMZURCrxh-6" target="bJAYaRsmpoxmMZURCrxh-10" edge="1">
          <mxGeometry relative="1" as="geometry" />
        </mxCell>
        <mxCell id="bJAYaRsmpoxmMZURCrxh-6" value="InitializingBean" style="whiteSpace=wrap;html=1;" parent="1" vertex="1">
          <mxGeometry x="210" y="330" width="120" height="40" as="geometry" />
        </mxCell>
        <mxCell id="oOwQKuBCiQTcTqmvQhUo-2" value="" style="edgeStyle=orthogonalEdgeStyle;rounded=0;orthogonalLoop=1;jettySize=auto;html=1;" edge="1" parent="1" source="bJAYaRsmpoxmMZURCrxh-10" target="oOwQKuBCiQTcTqmvQhUo-1">
          <mxGeometry relative="1" as="geometry" />
        </mxCell>
        <mxCell id="bJAYaRsmpoxmMZURCrxh-10" value="执行对应方法&lt;br&gt;afterPropertiesSet" style="whiteSpace=wrap;html=1;" parent="1" vertex="1">
          <mxGeometry x="210" y="390" width="120" height="60" as="geometry" />
        </mxCell>
        <mxCell id="oOwQKuBCiQTcTqmvQhUo-4" value="" style="edgeStyle=orthogonalEdgeStyle;rounded=0;orthogonalLoop=1;jettySize=auto;html=1;" edge="1" parent="1" source="oOwQKuBCiQTcTqmvQhUo-1" target="oOwQKuBCiQTcTqmvQhUo-3">
          <mxGeometry relative="1" as="geometry" />
        </mxCell>
        <mxCell id="oOwQKuBCiQTcTqmvQhUo-6" value="" style="edgeStyle=orthogonalEdgeStyle;rounded=0;orthogonalLoop=1;jettySize=auto;html=1;" edge="1" parent="1" source="oOwQKuBCiQTcTqmvQhUo-1" target="oOwQKuBCiQTcTqmvQhUo-5">
          <mxGeometry relative="1" as="geometry" />
        </mxCell>
        <mxCell id="oOwQKuBCiQTcTqmvQhUo-1" value="initClient" style="whiteSpace=wrap;html=1;" vertex="1" parent="1">
          <mxGeometry x="210" y="490" width="120" height="60" as="geometry" />
        </mxCell>
        <mxCell id="oOwQKuBCiQTcTqmvQhUo-10" value="" style="edgeStyle=orthogonalEdgeStyle;rounded=0;orthogonalLoop=1;jettySize=auto;html=1;" edge="1" parent="1" source="oOwQKuBCiQTcTqmvQhUo-3" target="oOwQKuBCiQTcTqmvQhUo-9">
          <mxGeometry relative="1" as="geometry" />
        </mxCell>
        <mxCell id="oOwQKuBCiQTcTqmvQhUo-3" value="RMClient.init" style="whiteSpace=wrap;html=1;" vertex="1" parent="1">
          <mxGeometry x="280" y="590" width="120" height="60" as="geometry" />
        </mxCell>
        <mxCell id="oOwQKuBCiQTcTqmvQhUo-8" value="" style="edgeStyle=orthogonalEdgeStyle;rounded=0;orthogonalLoop=1;jettySize=auto;html=1;" edge="1" parent="1" source="oOwQKuBCiQTcTqmvQhUo-5" target="oOwQKuBCiQTcTqmvQhUo-7">
          <mxGeometry relative="1" as="geometry" />
        </mxCell>
        <mxCell id="oOwQKuBCiQTcTqmvQhUo-5" value="TMClient.init" style="whiteSpace=wrap;html=1;" vertex="1" parent="1">
          <mxGeometry x="100" y="590" width="120" height="60" as="geometry" />
        </mxCell>
        <mxCell id="oOwQKuBCiQTcTqmvQhUo-7" value="创建TM的Netty远程客户端&lt;br&gt;TMNettyRemotingClient&lt;br&gt;" style="whiteSpace=wrap;html=1;" vertex="1" parent="1">
          <mxGeometry x="85" y="690" width="150" height="60" as="geometry" />
        </mxCell>
        <mxCell id="oOwQKuBCiQTcTqmvQhUo-9" value="创建RM的Netty远程客户端" style="whiteSpace=wrap;html=1;" vertex="1" parent="1">
          <mxGeometry x="265" y="690" width="150" height="60" as="geometry" />
        </mxCell>
      </root>
    </mxGraphModel>
  </diagram>
</mxfile>
